<?xml version="1.0" encoding="UTF-8" standalone="no"?>
<!-- Created with Inkscape (http://www.inkscape.org/) -->

<svg
   xmlns:dc="http://purl.org/dc/elements/1.1/"
   xmlns:cc="http://creativecommons.org/ns#"
   xmlns:rdf="http://www.w3.org/1999/02/22-rdf-syntax-ns#"
   xmlns:svg="http://www.w3.org/2000/svg"
   xmlns="http://www.w3.org/2000/svg"
   xmlns:sodipodi="http://sodipodi.sourceforge.net/DTD/sodipodi-0.dtd"
   xmlns:inkscape="http://www.inkscape.org/namespaces/inkscape"
   width="700"
   height="268.293"
   viewBox="0 0 700 268.293"
   id="svg2"
   version="1.1"
   inkscape:version="0.91 r13725"
   sodipodi:docname="Logo_path.svg">
  <defs
     id="defs4" />
  <sodipodi:namedview
     id="base"
     pagecolor="#ffffff"
     bordercolor="#666666"
     borderopacity="1.0"
     inkscape:pageopacity="0.0"
     inkscape:pageshadow="2"
     inkscape:zoom="0.54811074"
     inkscape:cx="1013.8541"
     inkscape:cy="-305.51095"
     inkscape:document-units="px"
     inkscape:current-layer="layer1"
     showgrid="false"
     inkscape:snap-bbox="true"
     inkscape:bbox-paths="true"
     inkscape:bbox-nodes="true"
     inkscape:snap-bbox-edge-midpoints="true"
     inkscape:snap-bbox-midpoints="true"
     inkscape:object-paths="true"
     inkscape:snap-intersection-paths="true"
     inkscape:object-nodes="true"
     inkscape:snap-smooth-nodes="true"
     inkscape:snap-midpoints="true"
     inkscape:snap-global="false"
     inkscape:window-width="1680"
     inkscape:window-height="987"
     inkscape:window-x="-8"
     inkscape:window-y="-8"
     inkscape:window-maximized="1" />
  <metadata
     id="metadata7">
    <rdf:RDF>
      <cc:Work
         rdf:about="">
        <dc:format>image/svg+xml</dc:format>
        <dc:type
           rdf:resource="http://purl.org/dc/dcmitype/StillImage" />
        <dc:title />
      </cc:Work>
    </rdf:RDF>
  </metadata>
  <g
     inkscape:label="Calque 1"
     inkscape:groupmode="layer"
     id="layer1"
     transform="translate(0,-784.0692)">
    <g
       id="g4803"
       transform="matrix(0.97082207,0,0,0.97082207,-5.131906,434.71684)">
      <g
         transform="matrix(3.2522773,0,0,3.2522773,-751.78734,-1167.3874)"
         id="g4237">
        <path
           style="fill:none;fill-rule:evenodd;stroke:#ff762f;stroke-width:1.29999995;stroke-linecap:round;stroke-linejoin:miter;stroke-miterlimit:4;stroke-dasharray:none;stroke-opacity:1"
           d="m 374.48194,492.39485 0,12.4449"
           id="path4180"
           inkscape:connector-curvature="0" />
        <path
           style="fill:none;fill-rule:evenodd;stroke:#ff762f;stroke-width:1.29999995;stroke-linecap:round;stroke-linejoin:miter;stroke-miterlimit:4;stroke-dasharray:none;stroke-opacity:1"
           d="m 386.48214,470.72005 0,21.65351"
           id="path4180-8"
           inkscape:connector-curvature="0" />
        <path
           style="fill:none;fill-rule:evenodd;stroke:#ff762f;stroke-width:1.29999995;stroke-linecap:round;stroke-linejoin:miter;stroke-miterlimit:4;stroke-dasharray:none;stroke-opacity:1"
           d="m 398.48234,486.1684 0,14.419"
           id="path4180-4"
           inkscape:connector-curvature="0" />
        <path
           id="rect4136"
           style="opacity:1;fill:#ffffff;fill-opacity:1;stroke:#ff7623;stroke-width:2;stroke-linecap:round;stroke-linejoin:round;stroke-miterlimit:4;stroke-dasharray:none;stroke-dashoffset:40;stroke-opacity:1"
           d="m 388.62677,502.30613 16.14327,16.14327 c 1.18812,1.18812 1.51618,11.99755 0,12.72175 l -16.14327,7.71077 c -1.51617,0.72419 -2.77307,0.72419 -4.28924,0 l -16.14328,-7.71077 c -1.51618,-0.7242 -1.18812,-11.53363 0,-12.72175 l 16.14328,-16.14327 c 1.18812,-1.18813 3.10111,-1.18813 4.28924,0 z"
           inkscape:connector-curvature="0"
           sodipodi:nodetypes="sssssssss" />
        <path
           id="rect4136-0"
           style="opacity:1;fill:#ffffff;fill-opacity:1;stroke:#ff762f;stroke-width:2;stroke-linecap:round;stroke-linejoin:round;stroke-miterlimit:4;stroke-dasharray:none;stroke-dashoffset:40;stroke-opacity:1"
           d="m 388.62677,510.73864 16.14327,16.14327 c 1.18812,1.18812 1.18812,3.10112 0,4.28924 l -16.14327,16.14328 c -1.18812,1.18811 -3.10113,1.18811 -4.28924,0 l -16.14328,-16.14328 c -1.18812,-1.18812 -1.18812,-3.10112 0,-4.28924 l 16.14328,-16.14327 c 1.18812,-1.18813 3.10111,-1.18813 4.28924,0 z"
           inkscape:connector-curvature="0"
           sodipodi:nodetypes="sssssssss" />
        <path
           style="fill:none;fill-rule:evenodd;stroke:#ff7623;stroke-width:2;stroke-linecap:butt;stroke-linejoin:miter;stroke-miterlimit:4;stroke-dasharray:none;stroke-opacity:1"
           d="m 376.26589,539.24279 20.43252,-20.43251"
           id="path4203"
           inkscape:connector-curvature="0" />
        <path
           style="fill:none;fill-rule:evenodd;stroke:#ff7623;stroke-width:2;stroke-linecap:butt;stroke-linejoin:miter;stroke-miterlimit:4;stroke-dasharray:none;stroke-opacity:1"
           d="m 396.69841,518.81028 0,-8.43251"
           id="path4207"
           inkscape:connector-curvature="0" />
        <path
           transform="matrix(0.70710678,-0.70710678,0.70710678,0.70710678,0,0)"
           style="opacity:1;fill:#ffffff;fill-opacity:1;stroke:#ff7623;stroke-width:0.5;stroke-linecap:round;stroke-linejoin:round;stroke-miterlimit:4;stroke-dasharray:none;stroke-dashoffset:40;stroke-opacity:1"
           d="m -104.72014,652.13324 7.981473,0 c 0.486383,0 0.877947,0.39156 0.877947,0.87795 l 0,4.15038 c 0,0.48638 -0.391564,0.87794 -0.877947,0.87794 l -7.981473,0 c -0.48639,0 -0.87795,-0.39156 -0.87795,-0.87794 l 0,-4.15038 c 0,-0.48639 0.39156,-0.87795 0.87795,-0.87795 z"
           id="rect4211" />
        <path
           style="fill:none;fill-rule:evenodd;stroke:#ff7623;stroke-width:0.40000001;stroke-linecap:round;stroke-linejoin:round;stroke-miterlimit:4;stroke-dasharray:none;stroke-opacity:1"
           d="m 389.06432,536.22044 0.10677,-1.0519 1.02565,-0.0805 0.10677,-1.0519 1.02565,-0.0805 0.10677,-1.0519 1.02565,-0.0805"
           id="path4213"
           inkscape:connector-curvature="0"
           sodipodi:nodetypes="ccccccc" />
        <path
           style="fill:none;fill-rule:evenodd;stroke:#ff7623;stroke-width:0.40000001;stroke-linecap:round;stroke-linejoin:round;stroke-miterlimit:4;stroke-dasharray:none;stroke-opacity:1"
           d="m 392.0263,536.08648 0.10677,-1.0519 1.02565,-0.0805 0.10677,-1.0519 1.02565,-0.0805 0.10677,-1.0519 1.02565,-0.0805"
           id="path4213-8"
           inkscape:connector-curvature="0"
           sodipodi:nodetypes="ccccccc" />
      </g>
      <g
         transform="matrix(3.2522773,0,0,3.2522773,-751.78734,-1167.3874)"
         id="g4249">
        <g
           style="font-style:normal;font-weight:normal;font-size:70px;line-height:125%;font-family:sans-serif;letter-spacing:0px;word-spacing:0px;fill:#2472ff;fill-opacity:1;stroke:none;stroke-width:1px;stroke-linecap:butt;stroke-linejoin:miter;stroke-opacity:1"
           id="text4144">
          <path
             d="m 233.83142,554.12402 9.31,-52.99 9.24,0 q 2.17,0 3.5,0.42 1.4,0.42 2.17,1.33 0.77,0.91 1.05,2.38 0.28,1.4 0.28,3.36 0,1.12 -0.14,2.73 -0.14,1.54 -0.49,3.92 -0.35,2.38 -0.91,5.81 -0.56,3.36 -1.4,8.19 -0.98,5.6 -1.68,9.1 -0.7,3.5 -1.33,5.74 -0.56,2.17 -1.12,3.5 -0.49,1.26 -1.12,2.38 -1.26,2.38 -3.08,3.29 -1.75,0.84 -5.04,0.84 l -9.24,0 z m 10.22,-6.51 q 1.26,0 1.89,-0.42 0.7,-0.49 1.26,-1.68 0.35,-0.77 0.63,-1.68 0.35,-0.98 0.7,-2.73 0.42,-1.75 0.91,-4.62 0.56,-2.87 1.4,-7.49 0.84,-4.76 1.33,-7.91 0.56,-3.22 0.84,-5.25 0.35,-2.03 0.49,-3.22 0.14,-1.19 0.14,-1.96 0,-1.89 -0.49,-2.52 -0.42,-0.7 -2.03,-0.7 l -3.57,0 -7.07,40.18 3.57,0 z"
             style="font-style:italic;font-variant:normal;font-weight:normal;font-stretch:normal;font-size:70px;font-family:'Built Titling';-inkscape-font-specification:'Built Titling Italic';fill:#2472ff;fill-opacity:1"
             id="path4152" />
          <path
             d="m 259.41423,554.12402 0,0 z m 11.83,0 q -0.21,-0.63 -0.21,-1.61 0,-1.33 0.28,-3.78 0.28,-2.45 0.63,-5.11 0.35,-2.73 0.63,-5.32 0.28,-2.59 0.28,-4.27 0,-1.47 -0.49,-1.89 -0.42,-0.42 -1.54,-0.42 l -2.66,0 -3.92,22.4 -5.53,0 9.31,-52.99 10.08,0 q 3.08,0 4.48,1.54 1.4,1.47 1.4,5.25 0,1.4 -0.28,3.5 -0.21,2.03 -0.91,5.88 -0.63,3.57 -1.26,5.53 -0.63,1.96 -1.4,3.36 -1.19,2.17 -2.8,2.8 l -0.07,0.35 q 0.56,0.35 0.91,1.19 0.42,0.84 0.42,2.45 0,1.82 -0.28,4.76 -0.28,2.94 -0.63,5.95 -0.28,2.94 -0.56,5.32 -0.21,2.38 -0.21,3.08 0,0.49 0,0.91 0,0.42 0.07,0.84 l 0,0.28 -5.74,0 z m 0.42,-28.07 q 1.26,0 2.03,-0.35 0.84,-0.42 1.4,-1.47 0.63,-1.05 1.12,-2.94 0.49,-1.89 1.05,-4.9 0.56,-3.01 0.77,-4.41 0.21,-1.4 0.21,-2.17 0,-1.26 -0.56,-1.89 -0.49,-0.63 -1.75,-0.63 l -3.5,0 -3.29,18.76 2.52,0 z"
             style="font-style:italic;font-variant:normal;font-weight:normal;font-stretch:normal;font-size:70px;font-family:'Built Titling';-inkscape-font-specification:'Built Titling Italic';fill:#2472ff;fill-opacity:1"
             id="path4154" />
          <path
             d="m 284.24345,554.12402 0,0 z m 6.86,0.91 q -2.1,0 -3.43,-0.42 -1.33,-0.42 -2.1,-1.26 -0.77,-0.91 -1.05,-2.31 -0.28,-1.47 -0.28,-3.57 0,-1.12 0.14,-2.73 0.14,-1.68 0.49,-4.27 0.35,-2.59 0.91,-6.3 0.63,-3.71 1.61,-9.03 0.91,-5.32 1.61,-8.75 0.7,-3.43 1.26,-5.6 0.63,-2.24 1.19,-3.57 0.56,-1.4 1.19,-2.66 1.26,-2.45 3.08,-3.36 1.82,-0.98 5.04,-0.98 2.1,0 3.43,0.42 1.4,0.42 2.17,1.33 0.77,0.91 1.05,2.38 0.28,1.4 0.28,3.36 0,1.19 -0.14,2.8 -0.14,1.61 -0.49,4.13 -0.35,2.45 -0.91,6.02 -0.56,3.5 -1.47,8.54 -0.98,5.67 -1.75,9.31 -0.7,3.57 -1.33,5.88 -0.56,2.31 -1.12,3.71 -0.56,1.4 -1.19,2.59 -1.33,2.45 -3.15,3.43 -1.82,0.91 -5.04,0.91 z m 4.27,-8.82 q 0.35,-0.84 0.63,-1.82 0.35,-0.98 0.77,-2.87 0.49,-1.89 1.05,-5.04 0.63,-3.22 1.61,-8.54 0.84,-5.04 1.33,-8.26 0.56,-3.22 0.84,-5.18 0.28,-2.03 0.35,-3.08 0.14,-1.12 0.14,-1.89 0,-1.89 -0.56,-2.52 -0.56,-0.63 -1.82,-0.63 -1.19,0 -1.89,0.56 -0.7,0.49 -1.19,1.68 -0.35,0.84 -0.7,1.82 -0.28,0.91 -0.7,2.8 -0.42,1.82 -0.98,4.97 -0.56,3.08 -1.47,8.19 -0.84,4.97 -1.4,8.19 -0.56,3.22 -0.91,5.32 -0.28,2.03 -0.42,3.22 -0.14,1.12 -0.14,1.89 0,1.61 0.35,2.52 0.42,0.91 2.03,0.91 1.26,0 1.89,-0.49 0.7,-0.49 1.19,-1.75 z"
             style="font-style:italic;font-variant:normal;font-weight:normal;font-stretch:normal;font-size:70px;font-family:'Built Titling';-inkscape-font-specification:'Built Titling Italic';fill:#2472ff;fill-opacity:1"
             id="path4156" />
          <path
             d="m 307.81267,554.12402 0,0 z m -0.7,0 9.31,-52.99 9.87,0 q 3.01,0 4.34,1.61 1.4,1.54 1.4,5.53 0,1.96 -0.35,4.83 -0.35,2.8 -1.19,7.63 -0.77,4.27 -1.68,7.35 -0.84,3.08 -2.1,5.04 -1.19,1.96 -2.87,2.94 -1.61,0.91 -3.92,0.91 l -4.27,0 -3.01,17.15 -5.53,0 z m 12.67,-23.31 q 0.84,0 1.54,-0.49 0.77,-0.56 1.4,-1.82 0.63,-1.33 1.19,-3.43 0.56,-2.17 1.12,-5.39 0.7,-3.71 0.91,-5.81 0.28,-2.1 0.28,-3.36 0,-2.1 -0.56,-2.59 -0.56,-0.56 -1.47,-0.56 l -3.36,0 -4.13,23.45 3.08,0 z"
             style="font-style:italic;font-variant:normal;font-weight:normal;font-stretch:normal;font-size:70px;font-family:'Built Titling';-inkscape-font-specification:'Built Titling Italic';fill:#2472ff;fill-opacity:1"
             id="path4158" />
          <path
             d="m 341.20923,554.12402 1.26,-7.28 18.41,-38.92 -0.14,-0.42 -10.99,0 1.12,-6.37 18.06,0 -0.63,3.43 -20.16,42.56 0.07,0.42 12.25,0 -1.12,6.58 -18.13,0 z"
             style="font-style:italic;font-variant:normal;font-weight:normal;font-stretch:normal;font-size:70px;font-family:'Built Titling';-inkscape-font-specification:'Built Titling Italic';fill:#2472ff;fill-opacity:1"
             id="path4160" />
        </g>
        <g
           style="font-style:normal;font-weight:normal;font-size:70px;line-height:125%;font-family:sans-serif;letter-spacing:0px;word-spacing:0px;fill:#2472fb;fill-opacity:1;stroke:none;stroke-width:1px;stroke-linecap:butt;stroke-linejoin:miter;stroke-opacity:1"
           id="text4144-6">
          <path
             d="m 407.06787,554.12402 0,0 z m 14.42,0 q -0.77,-7.84 -1.33,-13.44 -0.49,-5.6 -0.84,-9.52 -0.35,-3.92 -0.56,-6.37 -0.21,-2.52 -0.35,-4.06 -0.14,-1.54 -0.21,-2.38 -0.07,-0.91 -0.07,-1.61 l -0.28,0 q -0.07,0.77 -0.21,1.68 -0.14,0.84 -0.42,2.38 -0.28,1.54 -0.7,4.06 -0.42,2.45 -1.12,6.37 -0.7,3.92 -1.68,9.52 -0.98,5.6 -2.31,13.37 l -5.11,0 9.31,-52.99 6.44,0 q 0.35,6.02 0.56,10.29 0.21,4.27 0.35,7.21 0.21,2.87 0.28,4.62 0.07,1.75 0.14,2.8 0.07,1.05 0.07,1.61 0,0.49 0,0.91 l 0.28,0 4.76,-27.44 5.18,0 -9.31,52.99 -2.87,0 z"
             style="font-style:italic;font-variant:normal;font-weight:normal;font-stretch:normal;font-size:70px;font-family:'Built Titling';-inkscape-font-specification:'Built Titling Italic';fill:#2472fb;fill-opacity:1"
             id="path4163" />
          <path
             d="m 432.22412,554.12402 0,0 z m -0.7,0 9.31,-52.99 14.7,0 -1.12,6.3 -9.17,0 -2.94,16.66 9.03,0 -1.05,6.02 -9.03,0 -3.08,17.43 9.1,0 -1.12,6.58 -14.63,0 z"
             style="font-style:italic;font-variant:normal;font-weight:normal;font-stretch:normal;font-size:70px;font-family:'Built Titling';-inkscape-font-specification:'Built Titling Italic';fill:#2472fb;fill-opacity:1"
             id="path4165" />
        </g>
      </g>
    </g>
  </g>
</svg>
