<?xml version="1.0" encoding="iso-8859-1"?>
<!-- Generator: Adobe Illustrator 19.0.0, SVG Export Plug-In . SVG Version: 6.00 Build 0)  -->
<svg version="1.1" id="Layer_1" xmlns="http://www.w3.org/2000/svg" xmlns:xlink="http://www.w3.org/1999/xlink" x="0px" y="0px"
	 viewBox="0 0 512.001 512.001" style="enable-background:new 0 0 512.001 512.001;" xml:space="preserve">
<path style="fill:#96E178;" d="M20.677,278.308l2.28,6.841c2.219,6.658,7.545,11.813,14.281,13.783
	c29.763,8.699,113.851,32.107,156.976,32.107c52.967,0,238.354,0,256.009,0s43.452-7.618,57.888-12.847
	c4.911-1.779,5.248-8.553,0.577-10.888l-23.153-11.577c0,0-8.828-26.484-150.074-26.484H158.902l-61.795-17.656l-56.494-72.635
	c-3.345-4.3-8.488-6.816-13.937-6.816H15.018c-3.118,0-5.383,2.965-4.562,5.973l24.855,91.134h-8.1
	C22.51,269.242,19.191,273.847,20.677,278.308z"/>
<path style="fill:#CAC9CD;" d="M508.687,307.302l-23.152-11.576H282.493l158.902,35.312h8.828c17.656,0,43.452-7.618,57.887-12.847
	C513.021,316.412,513.358,309.638,508.687,307.302z"/>
<polygon style="fill:#A7A5AC;" points="308.977,322.21 220.698,295.726 185.386,295.726 247.181,331.038 308.977,331.038 "/>
<path style="fill:#DCDBDE;" d="M27.212,269.242c-4.701,0-8.021,4.605-6.534,9.065l2.28,6.842c1.457,4.37,4.34,7.978,7.993,10.577
	h454.584c0,0-8.828-26.484-150.074-26.484H158.902H35.312H27.212z"/>
<path style="fill:#8D8A94;" d="M308.977,339.866l-31.51-5.908c-2.204-0.414-3.802-2.337-3.802-4.581v-5.506
	c0-2.242,1.597-4.167,3.802-4.581l31.51-5.908V339.866z"/>
<path style="fill:#DCDBDE;" d="M344.288,339.866h-35.312c-4.875,0-8.828-3.953-8.828-8.828v-8.828c0-4.875,3.953-8.828,8.828-8.828
	h35.312c4.875,0,8.828,3.953,8.828,8.828v8.828C353.116,335.913,349.164,339.866,344.288,339.866z"/>
<path style="fill:#A7A5AC;" d="M0,260.415h24.852c1.081,0,2.155,0.174,3.18,0.516l51.419,17.139H26.484L0,260.415z"/>
<g>
	<path style="fill:#736F7B;" d="M474.377,286.898h-10.911c-2.438,0-4.414,1.976-4.414,4.414s1.976,4.414,4.414,4.414h22.07
		C485.535,295.726,484.174,291.759,474.377,286.898z"/>
	<circle style="fill:#736F7B;" cx="428.154" cy="291.31" r="4.414"/>
	<circle style="fill:#736F7B;" cx="410.498" cy="291.31" r="4.414"/>
	<circle style="fill:#736F7B;" cx="392.842" cy="291.31" r="4.414"/>
	<circle style="fill:#736F7B;" cx="375.186" cy="291.31" r="4.414"/>
	<circle style="fill:#736F7B;" cx="357.53" cy="291.31" r="4.414"/>
	<circle style="fill:#736F7B;" cx="339.875" cy="291.31" r="4.414"/>
	<circle style="fill:#736F7B;" cx="313.391" cy="291.31" r="4.414"/>
	<circle style="fill:#736F7B;" cx="295.735" cy="291.31" r="4.414"/>
	<circle style="fill:#736F7B;" cx="278.079" cy="291.31" r="4.414"/>
	<circle style="fill:#736F7B;" cx="260.423" cy="291.31" r="4.414"/>
	<circle style="fill:#736F7B;" cx="242.768" cy="291.31" r="4.414"/>
	<circle style="fill:#736F7B;" cx="225.112" cy="291.31" r="4.414"/>
	<circle style="fill:#736F7B;" cx="207.456" cy="291.31" r="4.414"/>
	<circle style="fill:#736F7B;" cx="189.8" cy="291.31" r="4.414"/>
	<circle style="fill:#736F7B;" cx="172.144" cy="291.31" r="4.414"/>
	<circle style="fill:#736F7B;" cx="154.488" cy="291.31" r="4.414"/>
	<circle style="fill:#736F7B;" cx="136.833" cy="291.31" r="4.414"/>
	<circle style="fill:#736F7B;" cx="119.177" cy="291.31" r="4.414"/>
</g>
<path style="fill:#CAC9CD;" d="M29.756,196.335l18.613,37.224c2.902,5.804,8.321,9.944,14.684,11.216l34.055,6.812l-48.064-61.795
	H33.8C30.439,189.791,28.253,193.329,29.756,196.335z"/>
<g>
</g>
<g>
</g>
<g>
</g>
<g>
</g>
<g>
</g>
<g>
</g>
<g>
</g>
<g>
</g>
<g>
</g>
<g>
</g>
<g>
</g>
<g>
</g>
<g>
</g>
<g>
</g>
<g>
</g>
</svg>
