<?xml version="1.0" encoding="iso-8859-1"?>
<!-- Generator: Adobe Illustrator 19.0.0, SVG Export Plug-In . SVG Version: 6.00 Build 0)  -->
<svg version="1.1" id="Layer_1" xmlns="http://www.w3.org/2000/svg" xmlns:xlink="http://www.w3.org/1999/xlink" x="0px" y="0px"
	 viewBox="0 0 512.001 512.001" style="enable-background:new 0 0 512.001 512.001;" xml:space="preserve">
<polygon style="fill:#EDEDEE;" points="436.966,414.897 280.276,11.034 125.807,384 284.501,384 284.703,414.897 "/>
<path style="fill:#CAC9CD;" d="M465.341,466.207L285.129,21.716l-0.34-17.355C284.742,1.939,282.765,0,280.343,0h-0.019
	c-2.456,0-4.448,1.992-4.448,4.448v375.138H121.393c-2.438,0-4.414,1.976-4.414,4.414s1.976,4.414,4.414,4.414h154.483v61.793
	h17.655l-7.918-403.822l171.556,423.133c0.69,1.716,2.345,2.759,4.086,2.759c0.552,0,1.112-0.104,1.655-0.328
	C465.169,471.034,466.264,468.466,465.341,466.207z"/>
<path style="fill:#736F7B;" d="M189.272,412.756c-0.982-3.929-4.513-6.687-8.564-6.687h-37.246h-4.414
	c-2.438,0-4.414,1.976-4.414,4.414s1.976,4.414,4.414,4.414h1.891l-15.133,52.966h70.621v-26.483L189.272,412.756z"/>
<path style="fill:#FF9164;" d="M169.945,467.862l26.483-26.483h160.412c4.682,0,9.173,1.86,12.484,5.171l21.311,21.312H169.945z"/>
<path style="fill:#FFB47D;" d="M44.74,495.965l16.245-16.245c13.245-13.245,31.207-20.685,49.937-20.685h352.811
	c5.601,0,8.406,6.772,4.446,10.733l-27.912,27.912c-9.17,9.17-21.607,14.322-34.574,14.322H51.381
	C43.013,512,38.822,501.881,44.74,495.965z"/>
<path style="fill:#FF9164;" d="M46.359,494.345l-1.62,1.62C38.822,501.882,43.013,512,51.381,512h354.311
	c12.968,0,25.405-5.151,34.574-14.322l3.334-3.334H46.359z"/>
<path style="fill:#625D6B;" d="M152.29,414.897h26.483l5.055,20.22c1.917,7.666-3.881,15.091-11.783,15.091h-28.583L152.29,414.897z
	"/>
<g>
</g>
<g>
</g>
<g>
</g>
<g>
</g>
<g>
</g>
<g>
</g>
<g>
</g>
<g>
</g>
<g>
</g>
<g>
</g>
<g>
</g>
<g>
</g>
<g>
</g>
<g>
</g>
<g>
</g>
</svg>
