<?xml version="1.0" encoding="iso-8859-1"?>
<!-- Generator: Adobe Illustrator 19.0.0, SVG Export Plug-In . SVG Version: 6.00 Build 0)  -->
<svg version="1.1" id="Layer_1" xmlns="http://www.w3.org/2000/svg" xmlns:xlink="http://www.w3.org/1999/xlink" x="0px" y="0px"
	 viewBox="0 0 512 512" style="enable-background:new 0 0 512 512;" xml:space="preserve">
<path style="fill:#625D6B;" d="M335.448,150.07c-2.259,0-4.518-0.862-6.241-2.586c-3.448-3.448-3.448-9.035,0-12.483l13.155-13.155
	l-1.103-2.207c-1.508-3.009-4.534-4.879-7.896-4.879h-24.397c-4.879,0-8.828-3.953-8.828-8.828c0-4.875,3.948-8.828,8.828-8.828
	h24.396c10.094,0,19.172,5.608,23.69,14.638l3.948,7.896c1.698,3.401,1.035,7.505-1.655,10.189l-17.655,17.655
	C339.966,149.208,337.707,150.07,335.448,150.07z"/>
<path style="fill:#504B5A;" d="M105.931,414.897C47.517,414.897,0,367.376,0,308.966s47.518-105.931,105.931-105.931
	s105.931,47.521,105.931,105.931S164.345,414.897,105.931,414.897z M105.931,220.69c-48.672,0-88.276,39.599-88.276,88.276
	s39.604,88.276,88.276,88.276s88.276-39.599,88.276-88.276S154.603,220.69,105.931,220.69z"/>
<path style="fill:#EDEDEE;" d="M105.931,397.242c-48.672,0-88.276-39.599-88.276-88.276s39.604-88.276,88.276-88.276
	s88.276,39.599,88.276,88.276S154.603,397.242,105.931,397.242z M105.931,238.345c-38.94,0-70.621,31.681-70.621,70.621
	s31.681,70.621,70.621,70.621s70.621-31.681,70.621-70.621S144.871,238.345,105.931,238.345z"/>
<path style="fill:#504B5A;" d="M406.069,414.897c-58.414,0-105.931-47.521-105.931-105.931s47.518-105.931,105.931-105.931
	S512,250.556,512,308.966S464.483,414.897,406.069,414.897z M406.069,220.69c-48.672,0-88.276,39.599-88.276,88.276
	s39.604,88.276,88.276,88.276s88.276-39.599,88.276-88.276S454.741,220.69,406.069,220.69z"/>
<path style="fill:#EDEDEE;" d="M406.069,397.242c-48.672,0-88.276-39.599-88.276-88.276s39.604-88.276,88.276-88.276
	s88.276,39.599,88.276,88.276S454.741,397.242,406.069,397.242z M406.069,238.345c-38.94,0-70.621,31.681-70.621,70.621
	s31.681,70.621,70.621,70.621s70.621-31.681,70.621-70.621S445.009,238.345,406.069,238.345z"/>
<g>
	<circle style="fill:#736F7B;" cx="105.931" cy="308.966" r="17.655"/>
	<circle style="fill:#736F7B;" cx="406.069" cy="308.966" r="8.828"/>
</g>
<path style="fill:#FF9164;" d="M413.638,304.423l-26.035-43.388l-43.844-122.763c-1.63-4.582-6.716-6.991-11.276-5.345
	c-4.595,1.642-6.991,6.694-5.345,11.285l2.573,7.206c-37.639,11.988-58.104,40.03-74.643,62.691
	c-9.998,13.707-18.79,25.725-29.357,32.529l-32.004-90.679l-16.655,5.879l18.345,51.978l-95.475,88.682
	c-2.655,2.474-3.534,6.319-2.207,9.698c1.327,3.379,4.588,5.598,8.217,5.598h132.414c27.043,0,39.776-26.56,53.25-54.677
	c12.493-26.052,26.6-55.475,53.565-68.446l26.116,73.127c0.19,0.547,0.439,1.074,0.742,1.574l26.483,44.138
	c1.655,2.759,4.577,4.285,7.577,4.285c1.543,0,3.112-0.405,4.534-1.259C414.793,314.026,416.147,308.604,413.638,304.423z
	 M201.803,231.965l24.061,68.173h-97.459L201.803,231.965z M275.672,255.483c-11.446,23.884-19.648,39.783-31.415,43.701
	l-12.558-35.581c15.159-8.331,26.094-23.277,37.628-39.085c16.641-22.807,33.853-46.365,66.326-56.461l3.549,9.937
	C305.524,193.275,288.988,227.711,275.672,255.483z"/>
<path style="fill:#625D6B;" d="M150.069,158.897c0,4.875,3.953,8.828,8.828,8.828h26.483c6.234,0,25.681-4.404,36.565-6.99
	c4.456-1.059,7.573-5.03,7.573-9.61l0,0c0-5.458-4.425-9.882-9.882-9.882h-60.738c-4.875,0-8.828,3.953-8.828,8.828V158.897z"/>
<path style="fill:#736F7B;" d="M247.172,353.104c-19.474,0-35.31-15.84-35.31-35.31s15.837-35.31,35.31-35.31
	s35.31,15.84,35.31,35.31S266.646,353.104,247.172,353.104z M247.172,300.138c-9.732,0-17.655,7.918-17.655,17.655
	c0,9.737,7.923,17.655,17.655,17.655c9.732,0,17.655-7.918,17.655-17.655C264.828,308.057,256.905,300.138,247.172,300.138z"/>
<path style="fill:#625D6B;" d="M264.828,379.591c-3.699,0-7.138-2.34-8.371-6.039l-17.655-52.966
	c-1.543-4.625,0.957-9.625,5.578-11.168c4.672-1.56,9.621,0.961,11.164,5.582l17.655,52.966c1.543,4.625-0.957,9.625-5.578,11.168
	C266.69,379.444,265.75,379.591,264.828,379.591z"/>
<path style="fill:#514A5B;" d="M282.483,379.587H256c-4.879,0-8.828-3.953-8.828-8.828s3.948-8.828,8.828-8.828h26.483
	c4.879,0,8.828,3.953,8.828,8.828S287.362,379.587,282.483,379.587z"/>
<g>
</g>
<g>
</g>
<g>
</g>
<g>
</g>
<g>
</g>
<g>
</g>
<g>
</g>
<g>
</g>
<g>
</g>
<g>
</g>
<g>
</g>
<g>
</g>
<g>
</g>
<g>
</g>
<g>
</g>
</svg>
